<?xml version="1.0" standalone="no"?>
<!DOCTYPE svg PUBLIC "-//W3C//DTD SVG 20010904//EN"
 "http://www.w3.org/TR/2001/REC-SVG-20010904/DTD/svg10.dtd">
<svg version="1.0" xmlns="http://www.w3.org/2000/svg"
 width="944.000000pt" height="944.000000pt" viewBox="0 0 944.000000 944.000000"
 preserveAspectRatio="xMidYMid meet">
<metadata>
Created by potrace 1.14, written by Peter Selinger 2001-2017
</metadata>
<g transform="translate(0.000000,944.000000) scale(0.100000,-0.100000)"
fill="#000000" stroke="none">
<path d="M4447 8703 c-3 -3 -35 -6 -71 -8 -36 -2 -82 -6 -103 -9 -21 -3 -60
-8 -88 -12 -27 -3 -59 -8 -70 -10 -11 -2 -36 -6 -55 -9 -37 -5 -53 -8 -135
-25 -27 -6 -59 -12 -70 -14 -19 -4 -48 -11 -147 -37 -24 -6 -47 -12 -53 -13
-108 -25 -340 -108 -555 -199 -14 -5 -28 -10 -32 -9 -5 1 -8 -3 -8 -8 0 -6 -5
-10 -12 -10 -14 0 -199 -93 -313 -158 -129 -73 -435 -278 -465 -312 -3 -3 -28
-24 -57 -46 -107 -84 -171 -143 -313 -285 -251 -252 -400 -440 -595 -752 -30
-49 -55 -92 -55 -97 0 -5 -6 -15 -12 -22 -25 -26 -189 -368 -234 -488 -77
-204 -155 -453 -169 -535 -1 -11 -7 -40 -13 -65 -6 -25 -13 -56 -16 -70 -3
-14 -7 -36 -10 -50 -3 -13 -8 -40 -11 -60 -3 -19 -9 -60 -14 -90 -5 -30 -7
-58 -5 -62 2 -4 0 -9 -6 -13 -6 -4 -8 -10 -6 -14 3 -4 0 -40 -5 -81 -16 -126
-22 -277 -19 -470 1 -102 2 -232 3 -290 2 -116 -5 -179 -23 -225 -6 -16 -13
-39 -16 -49 -11 -57 -96 -189 -168 -262 -65 -66 -125 -106 -261 -174 -61 -30
-111 -58 -113 -62 -2 -5 -12 -8 -22 -8 -10 0 -22 -4 -25 -10 -3 -5 -28 -20
-55 -32 l-50 -23 0 -408 c0 -225 3 -407 8 -405 30 13 248 124 252 128 3 3 124
65 270 139 146 73 373 189 505 256 132 68 353 180 490 250 138 70 254 131 259
136 6 5 18 9 27 9 10 0 19 3 21 8 3 6 168 91 778 399 85 43 158 83 162 88 4 6
8 7 8 3 0 -3 35 13 78 35 43 23 145 76 228 117 82 41 152 79 155 83 3 5 8 8
10 7 8 -3 45 14 81 37 21 13 44 23 52 23 8 0 16 3 18 8 4 10 525 274 531 270
2 -2 10 2 18 9 15 12 167 91 559 289 129 65 237 122 238 126 2 4 8 8 13 8 16
0 511 250 520 263 3 5 9 8 13 7 8 -2 98 41 106 51 5 5 38 21 50 23 3 1 10 4
15 8 6 3 100 52 210 108 110 56 205 106 211 111 6 5 13 7 16 4 3 -3 11 1 18
10 7 8 20 15 29 15 9 0 21 4 26 9 10 9 299 158 685 353 113 57 212 108 220
113 8 5 21 10 28 11 8 2 22 10 31 18 10 9 24 16 32 16 8 0 19 4 25 9 8 9 255
136 499 258 50 24 97 48 105 53 8 5 89 46 180 93 91 46 323 164 515 262 193
98 413 211 490 249 77 39 142 73 145 76 3 3 118 61 255 130 l250 126 3 407 c1
224 0 407 -2 407 -8 0 -61 -24 -66 -30 -3 -3 -50 -28 -105 -56 -55 -28 -173
-87 -262 -132 -90 -46 -166 -82 -169 -82 -4 1 -10 -2 -13 -7 -3 -5 -107 -60
-231 -122 -124 -63 -262 -133 -307 -157 -46 -24 -83 -40 -83 -36 0 4 -4 2 -8
-4 -4 -6 -74 -45 -157 -87 -357 -179 -480 -242 -485 -248 -3 -3 -21 -11 -40
-19 -19 -7 -39 -17 -45 -21 -12 -8 -344 -178 -795 -405 -173 -88 -317 -161
-320 -164 -5 -5 -296 -153 -777 -395 -153 -77 -280 -142 -283 -145 -3 -3 -102
-54 -220 -114 -118 -60 -278 -140 -355 -179 -77 -39 -141 -74 -143 -79 -2 -4
-9 -8 -15 -8 -16 0 -120 -53 -129 -65 -4 -5 -8 -6 -8 -1 0 5 -6 4 -12 -1 -7
-6 -166 -88 -353 -183 -438 -223 -671 -342 -1090 -556 -187 -95 -455 -231
-595 -301 -140 -70 -257 -130 -260 -133 -9 -9 -623 -319 -626 -316 -11 9 -27
257 -28 406 0 139 16 415 24 415 1 0 3 16 5 35 3 39 13 102 21 140 3 14 7 36
9 50 2 14 13 63 25 110 11 47 23 96 26 110 5 29 90 291 109 335 6 17 22 55 35
85 12 30 26 62 31 70 5 8 14 26 19 40 23 55 76 159 117 228 24 41 43 75 43 77
0 9 150 229 206 302 64 83 78 100 168 202 78 89 246 251 327 315 41 33 79 65
84 70 6 6 27 22 47 36 21 14 38 28 38 33 0 4 6 7 14 7 8 0 16 4 18 8 2 4 43
35 93 67 92 62 121 79 190 116 22 12 42 24 45 28 12 15 305 151 325 151 8 0
15 5 15 10 0 6 6 10 13 10 7 0 42 12 78 26 35 14 71 27 79 29 8 3 66 20 128
39 62 18 115 34 117 35 3 0 6 1 8 2 13 4 219 47 257 53 14 3 25 5 25 6 0 2 20
5 105 15 36 4 79 9 95 11 128 18 565 18 660 0 11 -2 47 -7 80 -11 85 -10 129
-17 250 -40 73 -14 325 -81 360 -96 11 -4 43 -15 70 -24 28 -9 64 -22 80 -30
17 -7 46 -18 65 -25 19 -7 109 -49 199 -92 l163 -79 147 75 c80 41 246 125
368 188 123 62 223 115 223 118 0 8 -197 140 -209 140 -6 0 -11 5 -11 10 0 6
-7 10 -15 10 -8 0 -15 5 -15 10 0 6 -5 10 -10 10 -6 0 -27 11 -48 23 -92 58
-361 197 -382 197 -5 0 -10 5 -10 10 0 6 -3 9 -7 8 -9 -1 -34 7 -78 27 -16 7
-61 25 -100 40 -38 15 -81 32 -95 37 -33 13 -229 77 -255 83 -41 10 -250 64
-250 65 0 1 -11 3 -25 6 -14 2 -36 6 -50 8 -128 23 -158 28 -180 31 -68 9
-128 17 -160 21 -19 3 -55 8 -80 10 -64 7 -627 13 -633 7z"/>
<path d="M9335 6661 c-49 -25 -91 -49 -93 -53 -2 -5 -12 -8 -23 -8 -10 0 -19
-4 -19 -10 0 -5 -9 -10 -20 -10 -11 0 -20 -4 -20 -8 0 -7 -59 -34 -69 -31 -2
0 -7 -3 -10 -8 -3 -5 -39 -24 -78 -43 -40 -19 -73 -38 -73 -42 0 -4 -4 -7 -8
-6 -10 4 -146 -64 -150 -74 -2 -5 -11 -8 -21 -8 -9 0 -21 -4 -27 -9 -5 -5
-153 -82 -329 -171 -176 -90 -426 -217 -555 -282 -129 -66 -241 -124 -247
-130 -7 -6 -13 -7 -13 -3 0 4 -6 3 -12 -3 -7 -5 -137 -73 -288 -150 -578 -294
-779 -396 -900 -458 -69 -35 -131 -64 -137 -64 -7 0 -13 -4 -13 -8 0 -5 -28
-21 -62 -37 -35 -16 -66 -33 -69 -38 -3 -5 -9 -8 -13 -8 -3 1 -84 -38 -179
-86 -94 -48 -199 -100 -232 -117 -33 -16 -61 -33 -63 -38 -2 -4 -9 -8 -15 -8
-7 0 -67 -29 -134 -63 -67 -34 -225 -114 -350 -178 -125 -64 -336 -171 -468
-238 -132 -68 -244 -127 -250 -132 -5 -5 -15 -9 -23 -9 -8 0 -26 -8 -40 -18
-15 -10 -52 -29 -82 -42 -30 -14 -57 -27 -60 -30 -3 -3 -41 -23 -85 -44 -44
-22 -88 -46 -99 -55 -10 -9 -20 -15 -22 -13 -5 3 -261 -124 -279 -138 -5 -5
-30 -16 -55 -26 -25 -10 -47 -21 -50 -24 -3 -4 -45 -26 -95 -51 -49 -24 -148
-74 -220 -111 -71 -38 -139 -71 -150 -74 -11 -4 -22 -9 -25 -13 -3 -3 -45 -26
-95 -51 -49 -25 -102 -53 -117 -63 -16 -10 -28 -15 -28 -12 0 4 -15 -2 -32
-13 -18 -11 -175 -92 -348 -180 -173 -88 -416 -211 -540 -274 -499 -255 -815
-416 -995 -507 -104 -53 -192 -99 -193 -103 -2 -5 -12 -8 -23 -8 -10 0 -19 -5
-19 -10 0 -6 -3 -9 -7 -8 -5 1 -26 -7 -48 -19 -145 -77 -215 -111 -215 -105 0
4 -4 2 -8 -4 -4 -7 -55 -35 -115 -64 -59 -29 -110 -56 -113 -61 -3 -5 -14 -9
-24 -9 -10 0 -20 -3 -22 -7 -2 -5 -40 -26 -85 -48 l-83 -40 0 -407 c0 -384 1
-407 18 -400 18 7 219 109 497 252 94 48 213 108 265 134 52 26 102 51 110 56
8 5 85 44 170 88 85 43 313 159 505 257 193 98 378 193 413 211 34 19 62 31
62 28 0 -2 6 0 13 6 12 11 133 74 613 315 132 66 241 122 244 125 3 3 111 59
240 124 507 257 644 327 657 338 7 6 13 7 13 3 0 -4 6 -3 13 2 10 9 332 175
742 382 72 37 137 71 145 76 8 5 17 10 20 10 6 1 112 55 401 203 108 55 270
138 360 183 90 45 166 86 167 91 2 4 10 8 18 8 8 0 38 13 67 29 29 15 185 95
347 177 162 82 297 152 298 157 2 4 12 7 23 7 10 0 19 5 19 10 0 6 9 10 19 10
11 0 21 3 23 8 2 4 122 67 268 141 146 73 326 165 400 203 427 219 803 408
806 405 2 -2 6 -19 9 -38 25 -163 25 -620 0 -759 -2 -14 -7 -47 -10 -74 -6
-57 -31 -194 -44 -250 -5 -22 -9 -42 -9 -45 1 -3 -1 -13 -5 -21 -5 -13 -16
-56 -22 -86 -16 -72 -110 -344 -147 -421 -11 -23 -19 -45 -19 -48 1 -3 -13
-33 -31 -68 -18 -34 -32 -64 -33 -67 0 -3 -7 -16 -14 -30 -18 -34 -70 -127
-94 -170 -37 -66 -185 -285 -241 -355 -102 -128 -130 -159 -261 -290 -140
-141 -207 -200 -331 -295 -43 -33 -83 -63 -89 -68 -34 -26 -216 -142 -224
-142 -5 0 -11 -3 -13 -7 -1 -5 -19 -16 -38 -27 -19 -10 -76 -40 -126 -67 -50
-27 -94 -46 -97 -42 -4 3 -7 1 -7 -5 0 -7 -8 -12 -19 -12 -10 0 -24 -7 -31
-15 -7 -8 -19 -15 -26 -15 -8 0 -22 -4 -32 -9 -41 -22 -257 -102 -312 -116 -8
-2 -31 -9 -50 -15 -50 -16 -230 -61 -260 -65 -14 -2 -36 -6 -50 -9 -56 -13
-139 -26 -195 -32 -33 -3 -66 -7 -74 -10 -20 -7 -234 -17 -346 -17 -102 0
-264 9 -345 18 -113 13 -188 24 -220 31 -14 3 -36 8 -50 10 -39 7 -76 15 -135
28 -34 8 -137 36 -195 53 -30 10 -57 18 -60 18 -3 1 -18 7 -33 13 -16 7 -33
12 -38 12 -9 0 -125 45 -199 78 -19 8 -36 15 -37 14 -2 -1 -67 30 -144 69
l-142 71 -126 -63 c-69 -35 -129 -68 -132 -72 -3 -5 -9 -8 -13 -8 -7 2 -39
-14 -293 -144 -95 -49 -173 -91 -173 -94 1 -13 359 -241 380 -241 4 0 10 -4
12 -8 7 -16 267 -141 483 -232 117 -49 410 -142 520 -166 19 -4 35 -7 88 -19
12 -3 35 -8 51 -11 16 -2 32 -6 35 -8 3 -2 28 -7 54 -10 26 -4 71 -11 100 -16
152 -29 360 -44 612 -44 258 0 380 8 588 38 20 3 52 8 71 11 42 6 344 70 356
76 3 1 10 3 15 4 6 1 17 4 25 8 14 5 57 16 86 22 27 6 290 98 299 105 6 4 24
11 40 15 17 5 32 9 35 10 13 4 116 52 227 106 68 33 127 59 133 59 5 0 10 4
10 8 0 5 16 14 35 22 19 8 35 17 35 21 0 4 10 11 23 16 21 8 108 58 165 95 15
10 37 23 50 29 12 7 22 16 22 21 0 4 4 8 10 8 16 0 280 194 346 255 6 6 35 30
64 55 70 58 300 288 365 364 28 32 58 68 68 80 10 11 31 36 45 55 15 19 32 39
37 45 57 63 240 335 319 474 49 86 163 311 189 372 8 19 23 55 33 80 11 24 19
47 19 50 0 3 4 10 8 17 13 21 97 263 91 263 -4 0 -2 6 3 13 9 11 76 246 88
307 3 14 9 48 15 75 6 28 12 61 15 75 3 14 7 36 9 50 10 52 19 113 31 215 28
242 32 393 22 765 -3 96 -2 179 1 185 3 5 7 16 9 25 12 72 15 80 54 165 29 65
100 166 139 199 18 14 28 26 23 26 -25 0 137 98 306 186 l196 101 3 406 c1
224 -1 407 -5 406 -5 -1 -48 -22 -98 -48z"/>
</g>
</svg>
